{"title":"Elfie Hopkins 2012 BRRip x264 AAC-UNiQUE","uid":7533404,"size":1108528058,"categoryP":"video","categoryS":"movies","magnet":"?xt=urn:btih:cfd3297829d68cc2ea3d4007f9fd14a69d612cc8&amp;dn=Elfie+Hopkins+2012+BRRip+x264+AAC-UNiQUE&amp;tr=udp%3A%2F%2Ftracker.openbittorrent.com%3A80&amp;tr=udp%3A%2F%2Fopen.demonii.com%3A1337&amp;tr=udp%3A%2F%2Ftracker.coppersurfer.tk%3A6969&amp;tr=udp%3A%2F%2Fexodus.desync.com%3A6969","seeders":0,"leechers":0,"uploader":"neon","files":-1,"time":1344992107,"description":"Storyline\nAn aspiring teen detective stumbles into her first real case, when investigating the mysterious new family in her neighborhood.\n\niMDB: &lt;a href=&quot; http://www.imdb.com/title/tt1470022/&quot; rel=&quot;nofollow&quot; target=&quot;_NEW&quot;&gt; http://www.imdb.com/title/tt1470022/&lt;/a&gt;\nGeneral\nComplete name : Elfie Hopkins 2012 BRRip x264 AAC-UNiQUE.mp4\nFormat : MPEG-4\nFormat profile : Base Media\nCodec ID : isom\nFile size : 1.02 GiB\nDuration : 1h 29mn\nOverall bit rate mode : Variable\nOverall bit rate : 1 629 Kbps\nEncoded date : UTC 2012-08-14 23:42:38\n\nVideo\nID : 1\nFormat : AVC\nFormat/Info : Advanced Video Codec\nFormat profile : &lt;a class=&quot;__cf_email__&quot; href=&quot;/cdn-cgi/l/email-protection&quot; data-cfemail=&quot;0b43626c634b473f253a&quot;&gt;[email&amp;#160;protected]&lt;/a&gt;&lt;script data-cfhash='f9e31' type=&quot;text/javascript&quot;&gt;\n/* &lt;![CDATA[ */!function(){try{var t=&quot;currentScript&quot;in document?document.currentScript:function(){for(var t=document.getElementsByTagName(&quot;script&quot;),e=t.length;e--;)if(t[e].getAttribute(&quot;data-cfhash&quot;))return t[e]}();if(t&amp;&amp;t.previousSibling){var e,r,n,i,c=t.previousSibling,a=c.getAttribute(&quot;data-cfemail&quot;);if(a){for(e=&quot;&quot;,r=parseInt(a.substr(0,2),16),n=2;a.length-n;n+=2)i=parseInt(a.substr(n,2),16)^r,e+=String.fromCharCode(i);e=document.createTextNode(e),c.parentNode.replaceChild(e,c)}t.parentNode.removeChild(t);}}catch(u){}}()/* ]]&gt; */&lt;/script&gt;\nFormat settings, CABAC : Yes\nFormat settings, ReFrames : 3 frames\nCodec ID : avc1\nCodec ID/Info : Advanced Video Coding\nDuration : 1h 29mn\nBit rate mode : Variable\nBit rate : 1 311 Kbps\nMaximum bit rate : 40.0 Mbps\nWidth : 720 pixels\nHeight : 304 pixels\nDisplay aspect ratio : 2.35:1\nFrame rate mode : Constant\nFrame rate : 24.000 fps\nColor space : YUV\nChroma subsampling : 4:2:0\nBit depth : 8 bits\nScan type : Progressive\nBits/(Pixel*Frame) : 0.250\nStream size : 836 MiB (80%)\nWriting library : x264 core 125 r2208 d9d2288\n\nAudio\nID : 2\nFormat : AAC\nFormat/Info : Advanced Audio Codec\nFormat profile : LC\nCodec ID : 40\nDuration : 1h 29mn\nBit rate mode : Variable\nBit rate : 314 Kbps\nMaximum bit rate : 402 Kbps\nChannel(s) : 6 channels\nChannel positions : Front: L C R, Side: L R, LFE\nSampling rate : 48.0 KHz\nCompression mode : Lossy\nStream size : 201 MiB (19%)\nLanguage : English\nEncoded date : UTC 2012-08-14 23:43:02\n\nSource : 720p.BluRay.x264-SONiDO - Thanks!\n &lt;a href=&quot;\nhttp://i.imgur.com/dqYng.png&quot; rel=&quot;nofollow&quot; target=&quot;_NEW&quot;&gt;\nhttp://i.imgur.com/dqYng.png&lt;/a&gt; &lt;a href=&quot;\nhttp://i.imgur.com/BGVHx.png&quot; rel=&quot;nofollow&quot; target=&quot;_NEW&quot;&gt;\nhttp://i.imgur.com/BGVHx.png&lt;/a&gt; &lt;a href=&quot;\nhttp://i.imgur.com/dkWPv.png&quot; rel=&quot;nofollow&quot; target=&quot;_NEW&quot;&gt;\nhttp://i.imgur.com/dkWPv.png&lt;/a&gt;","torrent":{"xt":"urn:btih:cfd3297829d68cc2ea3d4007f9fd14a69d612cc8","amp;dn":"Elfie+Hopkins+2012+BRRip+x264+AAC-UNiQUE","amp;tr":["udp%3A%2F%2Ftracker.openbittorrent.com%3A80","udp%3A%2F%2Fopen.demonii.com%3A1337","udp%3A%2F%2Ftracker.coppersurfer.tk%3A6969","udp%3A%2F%2Fexodus.desync.com%3A6969"],"infoHash":"cfd3297829d68cc2ea3d4007f9fd14a69d612cc8","infoHashBuffer":{"type":"Buffer","data":[207,211,41,120,41,214,140,194,234,61,64,7,249,253,20,166,157,97,44,200]},"announce":[],"urlList":[]}}